<?xml version="1.0" encoding="UTF-8"?> <svg xmlns="http://www.w3.org/2000/svg" width="233" height="240" viewBox="0 0 233 240" fill="none"><g opacity="0.2"><rect width="232.8" height="240" fill="white" fill-opacity="0.01"></rect><mask id="mask0" maskUnits="userSpaceOnUse" x="0" y="0" width="233" height="240"><rect width="232.8" height="240" fill="white"></rect></mask><g mask="url(#mask0)"><path fill-rule="evenodd" clip-rule="evenodd" d="M15.0648 15.7344C16.7592 15.7344 18.132 14.3592 18.132 12.6672C18.132 10.9728 16.7592 9.59998 15.0648 9.59998C13.3728 9.59998 12 10.9728 12 12.6672C12 14.3592 13.3728 15.7344 15.0648 15.7344" fill="#0A0B09"></path><path fill-rule="evenodd" clip-rule="evenodd" d="M48.6673 15.7344C50.3593 15.7344 51.7345 14.3592 51.7345 12.6672C51.7345 10.9728 50.3593 9.59998 48.6673 9.59998C46.9729 9.59998 45.6001 10.9728 45.6001 12.6672C45.6001 14.3592 46.9729 15.7344 48.6673 15.7344" fill="#0A0B09"></path><path fill-rule="evenodd" clip-rule="evenodd" d="M84.6673 15.7344C86.3617 15.7344 87.7345 14.3592 87.7345 12.6672C87.7345 10.9728 86.3617 9.59998 84.6673 9.59998C82.9753 9.59998 81.6001 10.9728 81.6001 12.6672C81.6001 14.3592 82.9753 15.7344 84.6673 15.7344" fill="#0A0B09"></path><path fill-rule="evenodd" clip-rule="evenodd" d="M118.267 15.7344C119.962 15.7344 121.334 14.3592 121.334 12.6672C121.334 10.9728 119.962 9.59998 118.267 9.59998C116.573 9.59998 115.2 10.9728 115.2 12.6672C115.2 14.3592 116.573 15.7344 118.267 15.7344" fill="#0A0B09"></path><path fill-rule="evenodd" clip-rule="evenodd" d="M151.867 15.7344C153.562 15.7344 154.934 14.3592 154.934 12.6672C154.934 10.9728 153.562 9.59998 151.867 9.59998C150.173 9.59998 148.8 10.9728 148.8 12.6672C148.8 14.3592 150.173 15.7344 151.867 15.7344" fill="#0A0B09"></path><path fill-rule="evenodd" clip-rule="evenodd" d="M187.865 15.7344C189.559 15.7344 190.932 14.3592 190.932 12.6672C190.932 10.9728 189.559 9.59998 187.865 9.59998C186.173 9.59998 184.8 10.9728 184.8 12.6672C184.8 14.3592 186.173 15.7344 187.865 15.7344" fill="#0A0B09"></path><path fill-rule="evenodd" clip-rule="evenodd" d="M221.467 15.7344C223.159 15.7344 224.534 14.3592 224.534 12.6672C224.534 10.9728 223.159 9.59998 221.467 9.59998C219.773 9.59998 218.4 10.9728 218.4 12.6672C218.4 14.3592 219.773 15.7344 221.467 15.7344" fill="#0A0B09"></path><path fill-rule="evenodd" clip-rule="evenodd" d="M-2.86566 49.5983C-1.17126 49.5983 0.201538 48.2255 0.201538 46.5335C0.201538 44.8391 -1.17126 43.4663 -2.86566 43.4663C-4.55766 43.4663 -5.93286 44.8391 -5.93286 46.5335C-5.93286 48.2255 -4.55766 49.5983 -2.86566 49.5983" fill="#0A0B09"></path><path fill-rule="evenodd" clip-rule="evenodd" d="M48.6673 49.332C50.3617 49.332 51.7345 47.9592 51.7345 46.2672C51.7345 44.5728 50.3617 43.2 48.6673 43.2C46.9729 43.2 45.6001 44.5728 45.6001 46.2672C45.6001 47.9592 46.9729 49.332 48.6673 49.332" fill="#0A0B09"></path><path fill-rule="evenodd" clip-rule="evenodd" d="M15.0672 49.332C16.7616 49.332 18.1344 47.9592 18.1344 46.2672C18.1344 44.5728 16.7616 43.2 15.0672 43.2C13.3728 43.2 12 44.5728 12 46.2672C12 47.9592 13.3728 49.332 15.0672 49.332" fill="#0A0B09"></path><path fill-rule="evenodd" clip-rule="evenodd" d="M84.6673 49.332C86.3617 49.332 87.7345 47.9592 87.7345 46.2672C87.7345 44.5728 86.3617 43.2 84.6673 43.2C82.9729 43.2 81.6001 44.5728 81.6001 46.2672C81.6001 47.9592 82.9729 49.332 84.6673 49.332" fill="#0A0B09"></path><path fill-rule="evenodd" clip-rule="evenodd" d="M118.265 49.332C119.959 49.332 121.332 47.9592 121.332 46.2672C121.332 44.5728 119.959 43.2 118.265 43.2C116.573 43.2 115.2 44.5728 115.2 46.2672C115.2 47.9592 116.573 49.332 118.265 49.332" fill="#0A0B09"></path><path fill-rule="evenodd" clip-rule="evenodd" d="M151.867 49.332C153.559 49.332 154.934 47.9592 154.934 46.2672C154.934 44.5728 153.559 43.2 151.867 43.2C150.173 43.2 148.8 44.5728 148.8 46.2672C148.8 47.9592 150.173 49.332 151.867 49.332" fill="#0A0B09"></path><path fill-rule="evenodd" clip-rule="evenodd" d="M187.867 49.332C189.562 49.332 190.934 47.9592 190.934 46.2672C190.934 44.5728 189.562 43.2 187.867 43.2C186.175 43.2 184.8 44.5728 184.8 46.2672C184.8 47.9592 186.175 49.332 187.867 49.332" fill="#0A0B09"></path><path fill-rule="evenodd" clip-rule="evenodd" d="M221.467 49.332C223.162 49.332 224.534 47.9592 224.534 46.2672C224.534 44.5728 223.162 43.2 221.467 43.2C219.773 43.2 218.4 44.5728 218.4 46.2672C218.4 47.9592 219.773 49.332 221.467 49.332" fill="#0A0B09"></path><path fill-rule="evenodd" clip-rule="evenodd" d="M15.0648 85.332C16.7592 85.332 18.132 83.9616 18.132 82.2672C18.132 80.5728 16.7592 79.2 15.0648 79.2C13.3728 79.2 12 80.5728 12 82.2672C12 83.9616 13.3728 85.332 15.0648 85.332" fill="#0A0B09"></path><path fill-rule="evenodd" clip-rule="evenodd" d="M48.6673 85.332C50.3593 85.332 51.7345 83.9616 51.7345 82.2672C51.7345 80.5728 50.3593 79.2 48.6673 79.2C46.9729 79.2 45.6001 80.5728 45.6001 82.2672C45.6001 83.9616 46.9729 85.332 48.6673 85.332" fill="#0A0B09"></path><path fill-rule="evenodd" clip-rule="evenodd" d="M84.6673 85.332C86.3617 85.332 87.7345 83.9616 87.7345 82.2672C87.7345 80.5728 86.3617 79.2 84.6673 79.2C82.9753 79.2 81.6001 80.5728 81.6001 82.2672C81.6001 83.9616 82.9753 85.332 84.6673 85.332" fill="#0A0B09"></path><path fill-rule="evenodd" clip-rule="evenodd" d="M118.267 85.332C119.962 85.332 121.334 83.9616 121.334 82.2672C121.334 80.5728 119.962 79.2 118.267 79.2C116.573 79.2 115.2 80.5728 115.2 82.2672C115.2 83.9616 116.573 85.332 118.267 85.332" fill="#0A0B09"></path><path fill-rule="evenodd" clip-rule="evenodd" d="M151.867 85.332C153.562 85.332 154.934 83.9616 154.934 82.2672C154.934 80.5728 153.562 79.2 151.867 79.2C150.173 79.2 148.8 80.5728 148.8 82.2672C148.8 83.9616 150.173 85.332 151.867 85.332" fill="#0A0B09"></path><path fill-rule="evenodd" clip-rule="evenodd" d="M187.865 85.332C189.559 85.332 190.932 83.9616 190.932 82.2672C190.932 80.5728 189.559 79.2 187.865 79.2C186.173 79.2 184.8 80.5728 184.8 82.2672C184.8 83.9616 186.173 85.332 187.865 85.332" fill="#0A0B09"></path><path fill-rule="evenodd" clip-rule="evenodd" d="M221.467 85.332C223.159 85.332 224.534 83.9616 224.534 82.2672C224.534 80.5728 223.159 79.2 221.467 79.2C219.773 79.2 218.4 80.5728 218.4 82.2672C218.4 83.9616 219.773 85.332 221.467 85.332" fill="#0A0B09"></path><path fill-rule="evenodd" clip-rule="evenodd" d="M-2.86566 118.718C-1.17126 118.718 0.201538 117.348 0.201538 115.654C0.201538 113.959 -1.17126 112.586 -2.86566 112.586C-4.55766 112.586 -5.93286 113.959 -5.93286 115.654C-5.93286 117.348 -4.55766 118.718 -2.86566 118.718" fill="#0A0B09"></path><path fill-rule="evenodd" clip-rule="evenodd" d="M15.0672 118.932C16.7616 118.932 18.1344 117.562 18.1344 115.867C18.1344 114.173 16.7616 112.8 15.0672 112.8C13.3728 112.8 12 114.173 12 115.867C12 117.562 13.3728 118.932 15.0672 118.932" fill="#0A0B09"></path><path fill-rule="evenodd" clip-rule="evenodd" d="M48.6673 118.932C50.3617 118.932 51.7345 117.562 51.7345 115.867C51.7345 114.173 50.3617 112.8 48.6673 112.8C46.9729 112.8 45.6001 114.173 45.6001 115.867C45.6001 117.562 46.9729 118.932 48.6673 118.932" fill="#0A0B09"></path><path fill-rule="evenodd" clip-rule="evenodd" d="M84.6649 118.932C86.3593 118.932 87.7321 117.562 87.7321 115.867C87.7321 114.173 86.3593 112.8 84.6649 112.8C82.9729 112.8 81.6001 114.173 81.6001 115.867C81.6001 117.562 82.9729 118.932 84.6649 118.932" fill="#0A0B09"></path><path fill-rule="evenodd" clip-rule="evenodd" d="M118.267 118.932C119.959 118.932 121.334 117.562 121.334 115.867C121.334 114.173 119.959 112.8 118.267 112.8C116.573 112.8 115.2 114.173 115.2 115.867C115.2 117.562 116.573 118.932 118.267 118.932" fill="#0A0B09"></path><path fill-rule="evenodd" clip-rule="evenodd" d="M151.867 118.932C153.562 118.932 154.934 117.562 154.934 115.867C154.934 114.173 153.562 112.8 151.867 112.8C150.175 112.8 148.8 114.173 148.8 115.867C148.8 117.562 150.175 118.932 151.867 118.932" fill="#0A0B09"></path><path fill-rule="evenodd" clip-rule="evenodd" d="M221.467 118.932C223.162 118.932 224.534 117.562 224.534 115.867C224.534 114.173 223.162 112.8 221.467 112.8C219.773 112.8 218.4 114.173 218.4 115.867C218.4 117.562 219.773 118.932 221.467 118.932" fill="#0A0B09"></path><path fill-rule="evenodd" clip-rule="evenodd" d="M187.867 118.932C189.562 118.932 190.934 117.562 190.934 115.867C190.934 114.173 189.562 112.8 187.867 112.8C186.173 112.8 184.8 114.173 184.8 115.867C184.8 117.562 186.173 118.932 187.867 118.932" fill="#0A0B09"></path><path fill-rule="evenodd" clip-rule="evenodd" d="M15.0648 152.534C16.7592 152.534 18.132 151.159 18.132 149.467C18.132 147.773 16.7592 146.4 15.0648 146.4C13.3728 146.4 12 147.773 12 149.467C12 151.159 13.3728 152.534 15.0648 152.534" fill="#0A0B09"></path><path fill-rule="evenodd" clip-rule="evenodd" d="M48.6673 152.534C50.3593 152.534 51.7345 151.159 51.7345 149.467C51.7345 147.773 50.3593 146.4 48.6673 146.4C46.9729 146.4 45.6001 147.773 45.6001 149.467C45.6001 151.159 46.9729 152.534 48.6673 152.534" fill="#0A0B09"></path><path fill-rule="evenodd" clip-rule="evenodd" d="M84.6673 152.534C86.3617 152.534 87.7345 151.159 87.7345 149.467C87.7345 147.773 86.3617 146.4 84.6673 146.4C82.9753 146.4 81.6001 147.773 81.6001 149.467C81.6001 151.159 82.9753 152.534 84.6673 152.534" fill="#0A0B09"></path><path fill-rule="evenodd" clip-rule="evenodd" d="M118.267 152.534C119.962 152.534 121.334 151.159 121.334 149.467C121.334 147.773 119.962 146.4 118.267 146.4C116.573 146.4 115.2 147.773 115.2 149.467C115.2 151.159 116.573 152.534 118.267 152.534" fill="#0A0B09"></path><path fill-rule="evenodd" clip-rule="evenodd" d="M151.867 152.534C153.562 152.534 154.934 151.159 154.934 149.467C154.934 147.773 153.562 146.4 151.867 146.4C150.173 146.4 148.8 147.773 148.8 149.467C148.8 151.159 150.173 152.534 151.867 152.534" fill="#0A0B09"></path><path fill-rule="evenodd" clip-rule="evenodd" d="M187.865 152.534C189.559 152.534 190.932 151.159 190.932 149.467C190.932 147.773 189.559 146.4 187.865 146.4C186.173 146.4 184.8 147.773 184.8 149.467C184.8 151.159 186.173 152.534 187.865 152.534" fill="#0A0B09"></path><path fill-rule="evenodd" clip-rule="evenodd" d="M221.467 152.534C223.159 152.534 224.534 151.159 224.534 149.467C224.534 147.773 223.159 146.4 221.467 146.4C219.773 146.4 218.4 147.773 218.4 149.467C218.4 151.159 219.773 152.534 221.467 152.534" fill="#0A0B09"></path><path fill-rule="evenodd" clip-rule="evenodd" d="M-2.86566 187.841C-1.17126 187.841 0.201538 186.465 0.201538 184.773C0.201538 183.079 -1.17126 181.706 -2.86566 181.706C-4.55766 181.706 -5.93286 183.079 -5.93286 184.773C-5.93286 186.465 -4.55766 187.841 -2.86566 187.841" fill="#0A0B09"></path><path fill-rule="evenodd" clip-rule="evenodd" d="M48.6673 188.534C50.3617 188.534 51.7345 187.159 51.7345 185.467C51.7345 183.773 50.3617 182.4 48.6673 182.4C46.9729 182.4 45.6001 183.773 45.6001 185.467C45.6001 187.159 46.9729 188.534 48.6673 188.534" fill="#0A0B09"></path><path fill-rule="evenodd" clip-rule="evenodd" d="M15.0672 188.534C16.7616 188.534 18.1344 187.159 18.1344 185.467C18.1344 183.773 16.7616 182.4 15.0672 182.4C13.3728 182.4 12 183.773 12 185.467C12 187.159 13.3728 188.534 15.0672 188.534" fill="#0A0B09"></path><path fill-rule="evenodd" clip-rule="evenodd" d="M84.6673 188.534C86.3617 188.534 87.7345 187.159 87.7345 185.467C87.7345 183.773 86.3617 182.4 84.6673 182.4C82.9729 182.4 81.6001 183.773 81.6001 185.467C81.6001 187.159 82.9729 188.534 84.6673 188.534" fill="#0A0B09"></path><path fill-rule="evenodd" clip-rule="evenodd" d="M118.265 188.534C119.959 188.534 121.332 187.159 121.332 185.467C121.332 183.773 119.959 182.4 118.265 182.4C116.573 182.4 115.2 183.773 115.2 185.467C115.2 187.159 116.573 188.534 118.265 188.534" fill="#0A0B09"></path><path fill-rule="evenodd" clip-rule="evenodd" d="M151.867 188.534C153.559 188.534 154.934 187.159 154.934 185.467C154.934 183.773 153.559 182.4 151.867 182.4C150.173 182.4 148.8 183.773 148.8 185.467C148.8 187.159 150.173 188.534 151.867 188.534" fill="#0A0B09"></path><path fill-rule="evenodd" clip-rule="evenodd" d="M187.867 188.534C189.562 188.534 190.934 187.159 190.934 185.467C190.934 183.773 189.562 182.4 187.867 182.4C186.175 182.4 184.8 183.773 184.8 185.467C184.8 187.159 186.175 188.534 187.867 188.534" fill="#0A0B09"></path><path fill-rule="evenodd" clip-rule="evenodd" d="M221.467 188.534C223.162 188.534 224.534 187.159 224.534 185.467C224.534 183.773 223.162 182.4 221.467 182.4C219.773 182.4 218.4 183.773 218.4 185.467C218.4 187.159 219.773 188.534 221.467 188.534" fill="#0A0B09"></path><path fill-rule="evenodd" clip-rule="evenodd" d="M14.4144 222.401C16.1088 222.401 17.4816 221.026 17.4816 219.334C17.4816 217.639 16.1088 216.266 14.4144 216.266C12.7224 216.266 11.3496 217.639 11.3496 219.334C11.3496 221.026 12.7224 222.401 14.4144 222.401" fill="#0A0B09"></path><path fill-rule="evenodd" clip-rule="evenodd" d="M48.9744 222.401C50.6664 222.401 52.0416 221.026 52.0416 219.334C52.0416 217.639 50.6664 216.266 48.9744 216.266C47.28 216.266 45.9072 217.639 45.9072 219.334C45.9072 221.026 47.28 222.401 48.9744 222.401" fill="#0A0B09"></path><path fill-rule="evenodd" clip-rule="evenodd" d="M83.5345 222.401C85.2289 222.401 86.6017 221.026 86.6017 219.334C86.6017 217.639 85.2289 216.266 83.5345 216.266C81.8425 216.266 80.4673 217.639 80.4673 219.334C80.4673 221.026 81.8425 222.401 83.5345 222.401" fill="#0A0B09"></path><path fill-rule="evenodd" clip-rule="evenodd" d="M118.095 222.401C119.789 222.401 121.162 221.026 121.162 219.334C121.162 217.639 119.789 216.266 118.095 216.266C116.4 216.266 115.027 217.639 115.027 219.334C115.027 221.026 116.4 222.401 118.095 222.401" fill="#0A0B09"></path><path fill-rule="evenodd" clip-rule="evenodd" d="M152.654 222.401C154.349 222.401 155.722 221.026 155.722 219.334C155.722 217.639 154.349 216.266 152.654 216.266C150.96 216.266 149.587 217.639 149.587 219.334C149.587 221.026 150.96 222.401 152.654 222.401Z" fill="#0A0B09"></path><path fill-rule="evenodd" clip-rule="evenodd" d="M187.214 222.401C188.909 222.401 190.282 221.026 190.282 219.334C190.282 217.639 188.909 216.266 187.214 216.266C185.522 216.266 184.15 217.639 184.15 219.334C184.15 221.026 185.522 222.401 187.214 222.401" fill="#0A0B09"></path><path fill-rule="evenodd" clip-rule="evenodd" d="M221.774 222.401C223.466 222.401 224.842 221.026 224.842 219.334C224.842 217.639 223.466 216.266 221.774 216.266C220.08 216.266 218.707 217.639 218.707 219.334C218.707 221.026 220.08 222.401 221.774 222.401" fill="#0A0B09"></path></g></g></svg> 